<mxfile host="app.diagrams.net" modified="2021-09-10T09:59:53.221Z" agent="5.0 (Macintosh; Intel Mac OS X 10_15_7) AppleWebKit/537.36 (KHTML, like Gecko) Chrome/92.0.4515.159 Safari/537.36" etag="7GPsldCHbI2IjeABCdx7" version="15.1.4" type="github" pages="2">
  <diagram id="QMPMnW46HtXfGCGeRIha" name="Page-1">
    <mxGraphModel dx="2253" dy="1883" grid="1" gridSize="10" guides="1" tooltips="1" connect="1" arrows="1" fold="1" page="1" pageScale="1" pageWidth="827" pageHeight="1169" background="#F1FAEE" math="0" shadow="0">
      <root>
        <mxCell id="0" />
        <mxCell id="1" parent="0" />
        <mxCell id="DHBk8vg_d8xPQQFKI-_3-2" value="" style="edgeStyle=orthogonalEdgeStyle;curved=0;rounded=1;sketch=0;orthogonalLoop=1;jettySize=auto;html=1;labelBackgroundColor=#F1FAEE;strokeColor=#457B9D;fontColor=#1D3557;" edge="1" parent="1" source="-m52fbD24wf5XVuBZqJ9-1" target="DHBk8vg_d8xPQQFKI-_3-1">
          <mxGeometry relative="1" as="geometry" />
        </mxCell>
        <mxCell id="-m52fbD24wf5XVuBZqJ9-1" value="&lt;font style=&quot;font-size: 14px&quot;&gt;开始验证&lt;/font&gt;" style="rounded=1;whiteSpace=wrap;html=1;sketch=1;glass=0;shadow=0;fillColor=#d5e8d4;strokeColor=#82b366;" vertex="1" parent="1">
          <mxGeometry x="324" y="10" width="180" height="40" as="geometry" />
        </mxCell>
        <mxCell id="DHBk8vg_d8xPQQFKI-_3-5" value="" style="edgeStyle=orthogonalEdgeStyle;curved=0;rounded=1;sketch=0;orthogonalLoop=1;jettySize=auto;html=1;labelBackgroundColor=#F1FAEE;strokeColor=#457B9D;fontColor=#1D3557;" edge="1" parent="1" source="DHBk8vg_d8xPQQFKI-_3-1" target="DHBk8vg_d8xPQQFKI-_3-4">
          <mxGeometry relative="1" as="geometry" />
        </mxCell>
        <mxCell id="DHBk8vg_d8xPQQFKI-_3-9" value="" style="edgeStyle=orthogonalEdgeStyle;curved=0;rounded=1;sketch=0;orthogonalLoop=1;jettySize=auto;html=1;labelBackgroundColor=#F1FAEE;strokeColor=#457B9D;fontColor=#1D3557;" edge="1" parent="1" source="DHBk8vg_d8xPQQFKI-_3-1" target="DHBk8vg_d8xPQQFKI-_3-8">
          <mxGeometry relative="1" as="geometry" />
        </mxCell>
        <mxCell id="DHBk8vg_d8xPQQFKI-_3-14" value="" style="edgeStyle=orthogonalEdgeStyle;curved=0;rounded=1;sketch=0;orthogonalLoop=1;jettySize=auto;html=1;labelBackgroundColor=#F1FAEE;strokeColor=#457B9D;fontColor=#1D3557;" edge="1" parent="1" source="DHBk8vg_d8xPQQFKI-_3-1" target="DHBk8vg_d8xPQQFKI-_3-13">
          <mxGeometry relative="1" as="geometry" />
        </mxCell>
        <mxCell id="DHBk8vg_d8xPQQFKI-_3-26" style="edgeStyle=orthogonalEdgeStyle;curved=0;rounded=1;sketch=0;orthogonalLoop=1;jettySize=auto;html=1;fontColor=#1D3557;strokeColor=#457B9D;fillColor=#A8DADC;entryX=1;entryY=0.5;entryDx=0;entryDy=0;" edge="1" parent="1" source="DHBk8vg_d8xPQQFKI-_3-1" target="DHBk8vg_d8xPQQFKI-_3-28">
          <mxGeometry relative="1" as="geometry">
            <mxPoint x="270" y="50" as="targetPoint" />
          </mxGeometry>
        </mxCell>
        <mxCell id="DHBk8vg_d8xPQQFKI-_3-1" value="&lt;font style=&quot;font-size: 13px&quot;&gt;pid列表是否存在&lt;/font&gt;" style="rhombus;whiteSpace=wrap;html=1;rounded=1;shadow=0;glass=0;sketch=1;fillColor=#f8cecc;strokeColor=#b85450;" vertex="1" parent="1">
          <mxGeometry x="349" y="150" width="130" height="90" as="geometry" />
        </mxCell>
        <mxCell id="DHBk8vg_d8xPQQFKI-_3-4" value="展示出pids列表" style="whiteSpace=wrap;html=1;rounded=0;shadow=0;glass=0;sketch=1;" vertex="1" parent="1">
          <mxGeometry x="-60" y="177.5" width="114" height="35" as="geometry" />
        </mxCell>
        <mxCell id="DHBk8vg_d8xPQQFKI-_3-6" value="Y" style="text;html=1;resizable=0;autosize=1;align=center;verticalAlign=middle;points=[];fillColor=none;strokeColor=none;rounded=0;shadow=0;glass=0;sketch=0;fontColor=#1D3557;" vertex="1" parent="1">
          <mxGeometry x="304" y="175" width="20" height="20" as="geometry" />
        </mxCell>
        <mxCell id="DHBk8vg_d8xPQQFKI-_3-7" value="N" style="text;html=1;resizable=0;autosize=1;align=center;verticalAlign=middle;points=[];fillColor=none;strokeColor=none;rounded=0;shadow=0;glass=0;sketch=0;fontColor=#1D3557;" vertex="1" parent="1">
          <mxGeometry x="510" y="170" width="20" height="20" as="geometry" />
        </mxCell>
        <mxCell id="DHBk8vg_d8xPQQFKI-_3-8" value="给出用户提示信息" style="whiteSpace=wrap;html=1;rounded=0;shadow=0;glass=0;sketch=1;fillColor=#fff2cc;strokeColor=#d6b656;" vertex="1" parent="1">
          <mxGeometry x="580" y="172.5" width="114" height="45" as="geometry" />
        </mxCell>
        <mxCell id="DHBk8vg_d8xPQQFKI-_3-16" value="" style="edgeStyle=orthogonalEdgeStyle;curved=0;rounded=1;sketch=0;orthogonalLoop=1;jettySize=auto;html=1;labelBackgroundColor=#F1FAEE;strokeColor=#457B9D;fontColor=#1D3557;" edge="1" parent="1" source="DHBk8vg_d8xPQQFKI-_3-13" target="DHBk8vg_d8xPQQFKI-_3-15">
          <mxGeometry relative="1" as="geometry" />
        </mxCell>
        <mxCell id="DHBk8vg_d8xPQQFKI-_3-13" value="轮询pid列表" style="whiteSpace=wrap;html=1;rounded=0;shadow=0;glass=0;sketch=1;" vertex="1" parent="1">
          <mxGeometry x="120" y="280" width="120" height="40" as="geometry" />
        </mxCell>
        <mxCell id="DHBk8vg_d8xPQQFKI-_3-18" value="" style="edgeStyle=orthogonalEdgeStyle;curved=0;rounded=1;sketch=0;orthogonalLoop=1;jettySize=auto;html=1;labelBackgroundColor=#F1FAEE;strokeColor=#457B9D;fontColor=#1D3557;" edge="1" parent="1" source="DHBk8vg_d8xPQQFKI-_3-15" target="DHBk8vg_d8xPQQFKI-_3-17">
          <mxGeometry relative="1" as="geometry" />
        </mxCell>
        <mxCell id="DHBk8vg_d8xPQQFKI-_3-23" style="edgeStyle=orthogonalEdgeStyle;curved=0;rounded=1;sketch=0;orthogonalLoop=1;jettySize=auto;html=1;fontColor=#1D3557;strokeColor=#457B9D;fillColor=#A8DADC;entryX=0.5;entryY=1;entryDx=0;entryDy=0;" edge="1" parent="1" source="DHBk8vg_d8xPQQFKI-_3-15" target="DHBk8vg_d8xPQQFKI-_3-24">
          <mxGeometry relative="1" as="geometry">
            <mxPoint x="140" y="410" as="targetPoint" />
          </mxGeometry>
        </mxCell>
        <mxCell id="DHBk8vg_d8xPQQFKI-_3-15" value="日志是否结束" style="rhombus;whiteSpace=wrap;html=1;rounded=1;shadow=0;glass=0;sketch=1;fillColor=#f8cecc;strokeColor=#b85450;" vertex="1" parent="1">
          <mxGeometry x="130" y="380" width="110" height="90" as="geometry" />
        </mxCell>
        <mxCell id="DHBk8vg_d8xPQQFKI-_3-17" value="该pid批次验证完成" style="whiteSpace=wrap;html=1;rounded=1;shadow=0;glass=0;sketch=1;fillColor=#d5e8d4;strokeColor=#82b366;" vertex="1" parent="1">
          <mxGeometry x="304" y="400" width="151" height="50" as="geometry" />
        </mxCell>
        <mxCell id="DHBk8vg_d8xPQQFKI-_3-25" style="edgeStyle=orthogonalEdgeStyle;curved=0;rounded=1;sketch=0;orthogonalLoop=1;jettySize=auto;html=1;entryX=0;entryY=0.5;entryDx=0;entryDy=0;fontColor=#1D3557;strokeColor=#457B9D;fillColor=#A8DADC;" edge="1" parent="1" source="DHBk8vg_d8xPQQFKI-_3-24" target="DHBk8vg_d8xPQQFKI-_3-13">
          <mxGeometry relative="1" as="geometry" />
        </mxCell>
        <mxCell id="DHBk8vg_d8xPQQFKI-_3-24" value="该pid验证未结束" style="rounded=0;whiteSpace=wrap;html=1;sketch=1;" vertex="1" parent="1">
          <mxGeometry x="-59" y="280" width="113" height="40" as="geometry" />
        </mxCell>
        <mxCell id="DHBk8vg_d8xPQQFKI-_3-30" style="edgeStyle=orthogonalEdgeStyle;curved=0;rounded=1;sketch=0;orthogonalLoop=1;jettySize=auto;html=1;entryX=0.445;entryY=0;entryDx=0;entryDy=0;entryPerimeter=0;fontColor=#1D3557;strokeColor=#457B9D;fillColor=#A8DADC;" edge="1" parent="1" source="DHBk8vg_d8xPQQFKI-_3-28" target="DHBk8vg_d8xPQQFKI-_3-29">
          <mxGeometry relative="1" as="geometry" />
        </mxCell>
        <mxCell id="DHBk8vg_d8xPQQFKI-_3-31" style="edgeStyle=orthogonalEdgeStyle;curved=0;rounded=1;sketch=0;orthogonalLoop=1;jettySize=auto;html=1;entryX=0.5;entryY=0;entryDx=0;entryDy=0;fontColor=#1D3557;strokeColor=#457B9D;fillColor=#A8DADC;" edge="1" parent="1" source="DHBk8vg_d8xPQQFKI-_3-28" target="DHBk8vg_d8xPQQFKI-_3-13">
          <mxGeometry relative="1" as="geometry" />
        </mxCell>
        <mxCell id="DHBk8vg_d8xPQQFKI-_3-28" value="提前终止流程" style="rhombus;whiteSpace=wrap;html=1;rounded=0;sketch=1;strokeColor=#b85450;fillColor=#f8cecc;" vertex="1" parent="1">
          <mxGeometry x="120" y="-10" width="120" height="70" as="geometry" />
        </mxCell>
        <mxCell id="DHBk8vg_d8xPQQFKI-_3-29" value="终止验证该批次" style="rounded=0;whiteSpace=wrap;html=1;sketch=1;" vertex="1" parent="1">
          <mxGeometry x="-50" y="50" width="110" height="40" as="geometry" />
        </mxCell>
      </root>
    </mxGraphModel>
  </diagram>
  <diagram id="NfuKOVqEyJcPiaZwZjDJ" name="Page-2">
    <mxGraphModel dx="1997" dy="1074" grid="1" gridSize="10" guides="1" tooltips="1" connect="1" arrows="1" fold="1" page="1" pageScale="1" pageWidth="827" pageHeight="1169" math="0" shadow="0">
      <root>
        <mxCell id="mJTleVnmWBAXuy6AJS5J-0" />
        <mxCell id="mJTleVnmWBAXuy6AJS5J-1" parent="mJTleVnmWBAXuy6AJS5J-0" />
      </root>
    </mxGraphModel>
  </diagram>
</mxfile>
